<?xml version="1.0" encoding="UTF-8" standalone="no"?>
<!-- Created with Inkscape (http://www.inkscape.org/) -->

<svg
   width="63.999996"
   height="63.999996"
   viewBox="0 0 16.933332 16.933332"
   version="1.1"
   id="svg1"
   xml:space="preserve"
   sodipodi:docname="vintage_elegance_instagram_light_icon.svg"
   inkscape:version="1.4 (e7c3feb100, 2024-10-09)"
   xmlns:inkscape="http://www.inkscape.org/namespaces/inkscape"
   xmlns:sodipodi="http://sodipodi.sourceforge.net/DTD/sodipodi-0.dtd"
   xmlns="http://www.w3.org/2000/svg"
   xmlns:svg="http://www.w3.org/2000/svg"><sodipodi:namedview
     id="namedview1"
     pagecolor="#505050"
     bordercolor="#eeeeee"
     borderopacity="1"
     inkscape:showpageshadow="0"
     inkscape:pageopacity="0"
     inkscape:pagecheckerboard="0"
     inkscape:deskcolor="#505050"
     inkscape:zoom="13.000001"
     inkscape:cx="32.03846"
     inkscape:cy="31.999998"
     inkscape:window-width="1920"
     inkscape:window-height="1052"
     inkscape:window-x="0"
     inkscape:window-y="0"
     inkscape:window-maximized="1"
     inkscape:current-layer="svg1" /><defs
     id="defs1" /><g
     id="layer1"><g
       id="g9"
       transform="matrix(1.427095,0,0,1.429951,-3.597599,-3.6416282)"><path
         style="display:inline;fill:#1e1e1e;fill-opacity:1;stroke:#1e1e1e;stroke-width:0.132292;stroke-linejoin:round;stroke-miterlimit:11.3;stroke-dasharray:none;stroke-opacity:1"
         d="M 8.4708007,2.6127604 H 5.1924479 c -1.8166583,0.346384 -2.3299301,1.411332 -2.605311,2.605311 v 6.3346536 c 0.3068371,2.001985 1.4112913,2.60814 2.7697635,2.769764 h 6.5115366 c 1.133111,-0.286713 2.092671,-0.864991 2.451872,-2.451872 V 5.1566315 c -0.255795,-1.2553903 -0.916076,-2.2303983 -2.53848,-2.53848 z"
         id="path8" /><path
         style="display:inline;fill:#faf7f0;fill-opacity:1;stroke:#faf7f0;stroke-width:0.092104;stroke-linejoin:round;stroke-miterlimit:11.3;stroke-dasharray:none;stroke-opacity:1"
         d="M 8.4858928,4.4096117 H 6.1950159 C 4.9255547,4.6498828 4.5668861,5.3885896 4.3744527,6.2167991 v 4.3940659 c 0.2144148,1.388688 0.9861952,1.809152 1.9354808,1.921261 h 4.5501925 c 0.791805,-0.19888 1.462335,-0.600005 1.713342,-1.700753 V 6.1741812 C 12.39472,5.3033732 11.933323,4.6270536 10.799605,4.4133512 Z"
         id="path8-9-0" /><path
         style="display:inline;fill:#1e1e1e;fill-opacity:1;stroke:#1e1e1e;stroke-width:0.0772892;stroke-linejoin:round;stroke-miterlimit:11.3;stroke-dasharray:none;stroke-opacity:1"
         d="M 8.4909443,5.068565 H 6.5685527 C 5.5032831,5.2701887 5.202306,5.8900752 5.0408254,6.585068 v 3.687285 c 0.1799263,1.165318 0.8275666,1.518151 1.6241605,1.612228 h 3.8182991 c 0.664443,-0.166891 1.22712,-0.503495 1.437752,-1.427188 V 6.5493051 C 11.77104,5.8185658 11.383859,5.2510315 10.432498,5.071703 Z"
         id="path8-9" /><ellipse
         style="fill:#faf7f0;fill-opacity:1;stroke:#faf7f0;stroke-width:0.278574;stroke-linejoin:round;stroke-miterlimit:11.3;stroke-dasharray:none;stroke-opacity:1"
         id="path9-8"
         cx="8.3871346"
         cy="8.4614277"
         rx="1.9790375"
         ry="1.9852101" /><ellipse
         style="fill:#1e1e1e;fill-opacity:1;stroke:#1e1e1e;stroke-width:0.186579;stroke-linejoin:round;stroke-miterlimit:11.3;stroke-dasharray:none;stroke-opacity:1"
         id="path9"
         cx="8.3859787"
         cy="8.4630079"
         rx="1.3254907"
         ry="1.3296249" /><ellipse
         style="fill:#faf7f0;fill-opacity:1;stroke:#faf7f0;stroke-width:0.0688112;stroke-linejoin:round;stroke-miterlimit:11.3;stroke-dasharray:none;stroke-opacity:1"
         id="path9-6"
         cx="10.63351"
         cy="6.2575598"
         rx="0.48884705"
         ry="0.49037176" /></g></g></svg>
