<?xml version="1.0" encoding="UTF-8" standalone="no"?>
<!-- Created with Inkscape (http://www.inkscape.org/) -->

<svg
   width="63.999996"
   height="63.999996"
   viewBox="0 0 16.933332 16.933332"
   version="1.1"
   id="svg1"
   xml:space="preserve"
   sodipodi:docname="vintage_elegance_github_dark_icon.svg"
   inkscape:version="1.4 (e7c3feb100, 2024-10-09)"
   xmlns:inkscape="http://www.inkscape.org/namespaces/inkscape"
   xmlns:sodipodi="http://sodipodi.sourceforge.net/DTD/sodipodi-0.dtd"
   xmlns="http://www.w3.org/2000/svg"
   xmlns:svg="http://www.w3.org/2000/svg"><sodipodi:namedview
     id="namedview1"
     pagecolor="#505050"
     bordercolor="#eeeeee"
     borderopacity="1"
     inkscape:showpageshadow="0"
     inkscape:pageopacity="0"
     inkscape:pagecheckerboard="0"
     inkscape:deskcolor="#505050"
     inkscape:zoom="9.1923887"
     inkscape:cx="33.886731"
     inkscape:cy="25.455843"
     inkscape:window-width="1920"
     inkscape:window-height="1052"
     inkscape:window-x="0"
     inkscape:window-y="0"
     inkscape:window-maximized="1"
     inkscape:current-layer="svg1" /><defs
     id="defs1" /><g
     id="layer1"><circle
       style="fill:#faf7f0;fill-opacity:1;stroke:#faf7f0;stroke-width:0.162099;stroke-linejoin:round;stroke-miterlimit:11.3;stroke-dasharray:none;stroke-opacity:1"
       id="path9"
       cx="8.4666662"
       cy="8.4666662"
       r="8.3856173" /><path
       style="fill:#1e1e1e;fill-opacity:1;stroke:#1e1e1e;stroke-width:0;stroke-linejoin:round;stroke-miterlimit:11.3;stroke-dasharray:none;stroke-opacity:1"
       d="M 6.2499308,16.645045 6.3522449,14.724463 C 5.6027609,14.879694 4.8674564,14.829321 4.1510299,14.505218 3.7052627,14.358335 3.4710302,13.663385 3.1863538,13.09913 3.0675257,12.944633 3.0110421,12.876633 2.9414484,12.784983 L 2.5528625,12.477864 c -0.1578805,-0.06051 -0.2192192,-0.1953 -0.2951024,-0.314 -0.027018,-0.07511 -1.06e-5,-0.152548 0.1296875,-0.178172 0.2002702,-0.06684 0.4192399,-0.0081 0.6468967,0.07568 0.3191227,0.154548 0.5801099,0.336635 0.751278,0.561267 0.099652,0.146234 0.1996493,0.293847 0.3069423,0.470644 l 0.2777096,0.289403 0.3215587,0.233861 0.3683309,0.128623 0.5115706,0.0058 0.4603097,-0.09168 0.3416667,-0.124991 0.087343,-0.417524 0.1551405,-0.365261 0.2262412,-0.2651 0.062318,-0.07484 C 5.4923686,12.438199 4.1593347,11.738 3.5589144,10.546661 3.031886,9.5009434 2.5535021,7.7159316 3.9005979,5.828643 3.6760915,5.2308223 3.5591035,4.7065454 4.0390295,3.6752278 c 0.8962718,-0.011241 1.6082516,0.4598214 2.3213053,0.901237 1.296631,-0.3629032 2.6787185,-0.4359732 4.2240322,-0.0062 0.751549,-0.4729821 1.507488,-0.8874214 2.291687,-0.9250638 0.446892,0.9564354 0.336961,1.6584754 0.169334,2.2806987 0.552888,0.6440542 0.866368,1.5308634 0.838342,2.5125803 -0.02765,0.9686253 -0.0266,1.0548276 -0.254326,1.669934 -0.227764,0.61521 -0.630442,1.152086 -1.222315,1.555009 -0.591873,0.402923 -1.372841,0.671931 -2.356889,0.751518 0.349014,0.37149 0.503204,0.779155 0.524865,1.244174 l 0.01319,2.715863 c 0.0089,0.15497 0.01805,0.212209 0.07672,0.267935 -1.619257,0.460669 -3.0684277,0.342436 -4.4150466,0.0021 z"
       id="path10" /></g></svg>
