<?xml version="1.0" encoding="UTF-8" standalone="no"?>
<!-- Created with Inkscape (http://www.inkscape.org/) -->

<svg
   width="63.999996"
   height="63.999996"
   viewBox="0 0 16.933332 16.933332"
   version="1.1"
   id="svg1"
   xml:space="preserve"
   sodipodi:docname="vintage_elegance_discord_light_icon.svg"
   inkscape:version="1.4 (e7c3feb100, 2024-10-09)"
   xmlns:inkscape="http://www.inkscape.org/namespaces/inkscape"
   xmlns:sodipodi="http://sodipodi.sourceforge.net/DTD/sodipodi-0.dtd"
   xmlns="http://www.w3.org/2000/svg"
   xmlns:svg="http://www.w3.org/2000/svg"><sodipodi:namedview
     id="namedview1"
     pagecolor="#505050"
     bordercolor="#eeeeee"
     borderopacity="1"
     inkscape:showpageshadow="0"
     inkscape:pageopacity="0"
     inkscape:pagecheckerboard="0"
     inkscape:deskcolor="#505050"
     inkscape:zoom="13.000001"
     inkscape:cx="32.03846"
     inkscape:cy="31.999998"
     inkscape:window-width="1920"
     inkscape:window-height="1052"
     inkscape:window-x="0"
     inkscape:window-y="0"
     inkscape:window-maximized="1"
     inkscape:current-layer="svg1" /><defs
     id="defs1" /><g
     id="layer1"><path
       style="fill:#1e1e1e;fill-opacity:1;stroke:#1e1e1e;stroke-width:0.243046;stroke-linejoin:round;stroke-miterlimit:11.3;stroke-opacity:1"
       d="M 6.3871668,2.4282389 6.2007719,2.0168943 C 4.9085453,2.3049378 3.6500017,2.8447564 2.4186224,3.5876237 1.059699,6.4540281 0.45279863,9.4453489 0.12152215,12.482453 1.4905636,13.834777 3.120663,14.676031 5.0576792,14.916438 l 0.6352627,-0.887139 c -1.3709765,-0.393374 -2.4538757,-1.140847 -3.2162562,-2.2823 4.3922708,2.76808 8.3257723,2.370724 11.9729953,-0.0019 -0.572689,0.904481 -1.165806,1.50879 -3.208649,2.26903 l 0.627654,0.889036 C 13.516395,14.603234 15.164102,14.167279 16.811811,12.48781 16.528244,9.5053303 15.849895,6.5553071 14.558093,3.6584847 13.430546,2.9216756 12.160836,2.3132048 10.729398,2.0168972 L 10.54871,2.4263464 c 1.827644,0.2457221 2.647163,1.1089539 3.522477,1.9543612 C 10.38807,2.4995288 6.6530382,2.3775578 2.8551804,4.3844925 3.7592079,3.385738 4.8181673,2.5835074 6.3871668,2.4282389 Z"
       id="path1" /><ellipse
       style="fill:#faf7f0;fill-opacity:1;stroke:#faf7f0;stroke-width:0.40991;stroke-linejoin:round;stroke-miterlimit:11.3;stroke-opacity:1"
       id="path2"
       cx="6.012475"
       cy="9.275136"
       rx="1.129894"
       ry="1.4028568" /><ellipse
       style="fill:#faf7f0;fill-opacity:1;stroke:#faf7f0;stroke-width:0.40991;stroke-linejoin:round;stroke-miterlimit:11.3;stroke-opacity:1"
       id="path2-6"
       cx="10.927206"
       cy="9.2751417"
       rx="1.129894"
       ry="1.4028568" /></g></svg>
