<?xml version="1.0" encoding="UTF-8" standalone="no"?>
<!-- Created with Inkscape (http://www.inkscape.org/) -->

<svg
   width="63.999996"
   height="63.999996"
   viewBox="0 0 16.933332 16.933332"
   version="1.1"
   id="svg1"
   xml:space="preserve"
   sodipodi:docname="vintage_elegance_instagram_dark_icon.svg"
   inkscape:version="1.4 (e7c3feb100, 2024-10-09)"
   xmlns:inkscape="http://www.inkscape.org/namespaces/inkscape"
   xmlns:sodipodi="http://sodipodi.sourceforge.net/DTD/sodipodi-0.dtd"
   xmlns="http://www.w3.org/2000/svg"
   xmlns:svg="http://www.w3.org/2000/svg"><sodipodi:namedview
     id="namedview1"
     pagecolor="#505050"
     bordercolor="#eeeeee"
     borderopacity="1"
     inkscape:showpageshadow="0"
     inkscape:pageopacity="0"
     inkscape:pagecheckerboard="0"
     inkscape:deskcolor="#505050"
     inkscape:zoom="9.1923887"
     inkscape:cx="32.037375"
     inkscape:cy="31.982982"
     inkscape:window-width="1920"
     inkscape:window-height="1052"
     inkscape:window-x="0"
     inkscape:window-y="0"
     inkscape:window-maximized="1"
     inkscape:current-layer="svg1" /><defs
     id="defs1" /><g
     id="layer1"><path
       style="display:inline;fill:#faf7f0;fill-opacity:1;stroke:#faf7f0;stroke-width:0.188982;stroke-linejoin:round;stroke-miterlimit:11.3;stroke-dasharray:none;stroke-opacity:1"
       d="M 8.4910383,0.09449115 H 3.8125174 C 1.2199735,0.58980329 0.48748584,2.1126268 0.09449113,3.8199582 v 9.0582438 c 0.4378857,2.862741 2.01404677,3.729513 3.95271567,3.960627 h 9.2925812 c 1.617057,-0.409985 2.98644,-1.236894 3.499054,-3.506057 V 3.7321022 C 16.473799,1.9369556 15.531515,0.54274189 13.21619,0.10220016 Z"
       id="path8" /><path
       style="display:inline;fill:#1e1e1e;fill-opacity:1;stroke:#1e1e1e;stroke-width:0.131573;stroke-linejoin:round;stroke-miterlimit:11.3;stroke-dasharray:none;stroke-opacity:1"
       d="M 8.5125762,2.6639005 H 5.2432772 C 3.4316355,3.0074764 2.9197813,4.0637909 2.6451606,5.2480899 v 6.2832991 c 0.3059903,1.985756 1.4073942,2.586999 2.7621149,2.747309 h 6.4935575 c 1.12998,-0.284389 2.08689,-0.857978 2.445101,-2.431994 V 5.1871484 C 14.090844,3.9419356 13.432387,2.9748317 11.814463,2.6692478 Z"
       id="path8-9-0" /><path
       style="display:inline;fill:#faf7f0;fill-opacity:1;stroke:#faf7f0;stroke-width:0.110409;stroke-linejoin:round;stroke-miterlimit:11.3;stroke-dasharray:none;stroke-opacity:1"
       d="M 8.5197852,3.6061714 H 5.7763497 c -1.5202409,0.288312 -1.9497638,1.1747193 -2.180212,2.168525 v 5.2726366 c 0.2567719,1.666348 1.1810162,2.170882 2.3178314,2.305407 h 5.4490759 c 0.948223,-0.238646 1.751216,-0.719973 2.051808,-2.040809 V 5.7235572 C 13.200793,4.6786358 12.648249,3.8670895 11.290567,3.6106586 Z"
       id="path8-9" /><ellipse
       style="fill:#131313;fill-opacity:1;stroke:#1e1e1f;stroke-width:0.397949;stroke-linejoin:round;stroke-miterlimit:11.3;stroke-dasharray:none;stroke-opacity:1"
       id="path9-8"
       cx="8.3716393"
       cy="8.457799"
       rx="2.8242745"
       ry="2.8387532" /><ellipse
       style="fill:#faf7f0;fill-opacity:1;stroke:#faf7f0;stroke-width:0.266532;stroke-linejoin:round;stroke-miterlimit:11.3;stroke-dasharray:none;stroke-opacity:1"
       id="path9"
       cx="8.3699894"
       cy="8.4600582"
       rx="1.8916012"
       ry="1.9012984" /><ellipse
       style="fill:#131313;fill-opacity:1;stroke:#1e1e1f;stroke-width:0.0982983;stroke-linejoin:round;stroke-miterlimit:11.3;stroke-dasharray:none;stroke-opacity:1"
       id="path9-6"
       cx="11.57743"
       cy="5.3063755"
       rx="0.69763118"
       ry="0.70120758" /></g></svg>
