<?xml version="1.0" encoding="UTF-8" standalone="no"?>
<!-- Created with Inkscape (http://www.inkscape.org/) -->

<svg
   width="255.99998"
   height="255.99998"
   viewBox="0 0 67.733328 67.733329"
   version="1.1"
   id="svg1"
   xmlns="http://www.w3.org/2000/svg"
   xmlns:svg="http://www.w3.org/2000/svg">
  <defs
     id="defs1" />
  <g
     id="layer1">
    <circle
       style="fill:#1e1e1e;fill-opacity:0;stroke:#fafafa;stroke-width:2.14724;stroke-linecap:round;stroke-linejoin:round;stroke-miterlimit:11.3;stroke-dasharray:none;stroke-opacity:1"
       id="path152"
       cx="33.866665"
       cy="33.866665"
       r="32.263878" />
    <path
       style="fill:#1e1e1e;fill-opacity:0;stroke:#fafafa;stroke-width:2.11667;stroke-linecap:round;stroke-linejoin:round;stroke-miterlimit:11.3;stroke-dasharray:none;stroke-opacity:1"
       d="M 1.5875016,34.149258 H 35.663758 V 1.5875016"
       id="path153" />
    <path
       style="fill:#1e1e1e;fill-opacity:0;stroke:#fafafa;stroke-width:2.69836;stroke-linecap:round;stroke-linejoin:round;stroke-miterlimit:11.3;stroke-dasharray:none;stroke-opacity:1"
       d="M 121.25776,253.63321 C 112.92198,253.19327 105.4905,252.05404 96.920286,249.90233 54.866313,239.34394 20.680282,206.85346 7.7986876,165.20098 -2.7007058,131.25132 1.719715,93.991764 19.834825,63.748864 38.462004,32.65107 69.020528,11.206615 104.39298,4.4101428 c 8.28099,-1.5911106 19.30259,-2.4853405 27.48959,-2.2303477 27.14385,0.845424 53.73785,10.7198739 75.0282,27.8582449 23.36302,18.806829 39.62379,46.07348 44.84529,75.19818 1.56812,8.74678 1.85329,12.24208 1.85752,22.76745 0.004,10.96803 -0.45908,15.97663 -2.3354,25.23715 -7.59276,37.47383 -32.55498,70.01116 -66.93256,87.24411 -19.4425,9.74624 -41.28695,14.29888 -63.08786,13.14828 z m 18.97647,-8.24453 c 17.97319,-1.90745 34.85191,-7.66209 49.83183,-16.98971 8.33912,-5.19257 14.40286,-10.03268 21.59387,-17.23636 17.28329,-17.31373 28.65015,-39.31992 32.67495,-63.2585 1.22259,-7.27165 1.53667,-11.33922 1.53667,-19.90044 0,-8.56122 -0.31408,-12.62878 -1.53667,-19.90044 -7.67464,-45.647007 -41.91593,-82.855424 -86.87854,-94.40687 -4.65612,-1.196215 -12.29519,-2.605061 -16.54744,-3.051782 l -2.10442,-0.221082 -0.088,59.861604 -0.088,59.86161 -0.7071,0.95225 c -0.38891,0.52374 -1.07194,1.13975 -1.51783,1.36891 -0.63477,0.32622 -14.44121,0.41772 -63.612405,0.42162 l -62.8016764,0.005 0.1736024,2.44539 c 1.797789,25.32406 10.87723,48.34932 26.685348,67.67345 3.631678,4.43944 11.320739,12.17724 15.666462,15.76578 18.039832,14.89663 39.690815,24.05846 62.840209,26.59145 5.63711,0.61681 19.1453,0.62666 24.87914,0.0181 z"
       id="path168"
       transform="scale(0.26458333)" />
  </g>
</svg>
